<svg xmlns="http://www.w3.org/2000/svg" xmlns:xlink="http://www.w3.org/1999/xlink" viewBox="0 0 7680 7680"><defs><style>.cls-1{fill:url(#linear-gradient);}.cls-2{fill:#ccc;stroke-miterlimit:10;stroke:url(#linear-gradient-2);}.cls-3{fill:#999;}.cls-4{fill:url(#linear-gradient-3);}.cls-5{fill:#fff;}</style><linearGradient id="linear-gradient" x1="3840" y1="7640" x2="3840" y2="-53.73" gradientUnits="userSpaceOnUse"><stop offset="0.04" stop-color="#6feaff"/><stop offset="0.68" stop-color="#5874ff"/></linearGradient><linearGradient id="linear-gradient-2" x1="2939.18" y1="3838.84" x2="6801.54" y2="3838.84" gradientUnits="userSpaceOnUse"><stop offset="0" stop-color="#fff"/><stop offset="1"/></linearGradient><linearGradient id="linear-gradient-3" x1="4276.72" y1="964.39" x2="4276.72" y2="7391.66" gradientUnits="userSpaceOnUse"><stop offset="0.84" stop-color="#fff"/><stop offset="1" stop-color="#bdccd4"/></linearGradient></defs><g id="Icon_Border" data-name="Icon Border"><rect class="cls-1" width="7680" height="7680" rx="863.44"/></g><g id="Spoon_Logo" data-name="Spoon Logo"><path class="cls-2" d="M2939.67,5252.33s295,1303.35,1152.67,1431.51S5168,4998,5110,4806s352-3152,352-3152,261-517,848-117c0,0-16,431,144,469s347-133,347-133l-80-448-165-171-283-180.82S5708,908,5505,1036s-385,453-443,837-357,3280-357,3280l-976,99.33" transform="translate(-0.5 1.5)"/><path class="cls-3" d="M2811.67,5252.33s283.4,1554,1160.37,1479.34S3494,6908,3494,6908s-1388.14-53.67-1630.07-1088.33S2353,5206,2353,5206l458.67,46.33" transform="translate(-0.5 1.5)"/><path class="cls-4" d="M3405.33,7004.53c-28,0-43.57-.92-44.21-1h0c-1.75-.11-3.5-.27-5.24-.49h0C2937.29,6950.53,2589.12,6821.3,2321,6619c-216.9-163.67-381.45-374.5-489.09-626.65-181.85-426-136-832.53-135.49-836.59l.48-4a81.91,81.91,0,0,1,81.31-72.08H4555.29a81.91,81.91,0,0,0,81.44-73.26L4982.51,1745c1.61-16.72,24.14-228.78,147.34-436.27C5240.42,1122.5,5457.73,900.51,5865,900.51c23.57,0,47.84.77,72.12,2.29,492.81,30.79,871.68,378.09,921.36,844.56,6.79,63.62,10.38,157.94-36.54,242.1-48.87,87.69-145.56,144.35-246.32,144.36-3.76,0-7.5-.08-11.25-.24-103.54-4.34-201.84-70.73-244.55-165.19-23-51-28.43-103-33.18-149-1.8-17.44-3.65-35.38-6.36-51.34-28-165.08-179.56-290.49-360.42-298.19-6.45-.27-12.83-.4-19.1-.4-261.35,0-343.35,243.58-358.75,299.63a82.31,82.31,0,0,0-2.52,13.48l-344,3391c-33.13,436.66-149.49,805-345.86,1094.92-158.88,234.53-369.47,417.66-625.92,544.31C3873.5,6985.85,3534.72,7004.53,3405.33,7004.53Zm-35.1-173.67q3.9.49,7.82.62c5.67.18,15,.39,27.41.39,91.51,0,415.46-12.54,742.12-174,361.41-178.58,806.73-583.5,875.86-1498.42L5369,1753.16a80.58,80.58,0,0,1,1.24-8.15h0c.91-4.48,96.57-448.2,530.37-448.2,8.77,0,17.73.2,26.64.57,261.73,11.15,481.82,197,523.34,441.85,3.64,21.5,5.79,42.28,7.86,62.37,3.74,36.14,7.25,70.18,18.77,95.64,16.24,35.93,55.09,62.17,94.47,63.82,1.46.06,2.82.09,4.17.09,37.83,0,77-22.93,95.33-55.76,23-41.25,19.95-99.5,15.66-139.74-40.59-381.12-353.3-665.07-760.44-690.52-20.72-1.29-41.36-2-61.36-2-261.69,0-459,108.84-586.58,323.49-104.52,175.92-123.9,363.29-124.08,365.16L4792.06,5179.07a81.91,81.91,0,0,1-81.45,73.26H1945.84a81.88,81.88,0,0,0-81.87,84.39c4.48,142.16,29.93,361.16,126.88,588.12C2141.34,6277.16,2502.86,6719.82,3370.23,6830.86Z" transform="translate(-0.5 1.5)"/><path class="cls-5" d="M3865.22,4548.15c-31.93,42.41-93.74,47.37-132.17,10.74-123-117.23-184-253.64-185.93-414.56-1.94-161.55,53.87-329.42,165.88-498.95,12.07-18.27,24.52-36.17,36.54-53.47,31.55-45.4,61.36-88.28,81.89-133.42,21.07-46.3,35-101.74,41.46-164.77,21.78-213.18-52.4-431.07-200.36-597.1-30.56-34.29-30.69-85.94.46-119.69l.1-.1c35.3-38.25,96.14-38.27,130.82.55,181.47,203.09,272.39,471.18,245.49,734.38C4041,3394,4022,3468.09,3992.94,3532c-27.19,59.76-63,111.34-97.7,161.22-12,17.22-23.28,33.48-34.2,50-92.08,139.36-138,273.6-136.5,399,1.36,112.89,42.1,204.05,130.39,287.93,32.83,31.2,37.53,81.84,10.29,118Z" transform="translate(-0.5 1.5)"/><path class="cls-5" d="M2924.83,4548.15c-31.93,42.41-93.73,47.37-132.16,10.74-123-117.23-184-253.64-185.94-414.56-1.94-161.55,53.87-329.42,165.89-498.95,12.07-18.27,24.51-36.17,36.53-53.47,31.56-45.4,61.36-88.28,81.9-133.42,21.06-46.3,35-101.74,41.45-164.77,21.79-213.18-52.4-431.07-200.36-597.1-30.55-34.29-30.69-85.94.46-119.69l.1-.1c35.31-38.25,96.14-38.27,130.82.55,181.47,203.09,272.39,471.18,245.5,734.38-8.41,82.24-27.41,156.33-56.47,220.2-27.18,59.76-63,111.34-97.7,161.22-12,17.22-23.27,33.48-34.2,50-92.08,139.36-138,273.6-136.49,399,1.35,112.89,42.1,204.05,130.38,287.93,32.84,31.2,37.54,81.84,10.29,118Z" transform="translate(-0.5 1.5)"/></g></svg>