<?xml version="1.0" encoding="utf-8"?>
<svg xmlns="http://www.w3.org/2000/svg" viewBox="0 0 500 500">
  <g id="Gruppe_1063" data-name="Gruppe 1063" transform="matrix(9.025835, 0, 0, 9.025835, -2446.874268, -456.727692)" style="">
    <g id="Gruppe_1058" data-name="Gruppe 1058" transform="translate(279 57.076)">
      <path id="Pfad_1570" data-name="Pfad 1570" d="M375.339,290.364v-9.117a4.616,4.616,0,0,0-4.611-4.611h-6.486l-8.688,7.808-8.689-7.808h-6.5a4.616,4.616,0,0,0-4.611,4.611v9.036a4.606,4.606,0,0,0,1.525,3.423l18.268,16.723L373.8,293.8A4.608,4.608,0,0,0,375.339,290.364Zm-3.322-.054a1.285,1.285,0,0,1-.431.959l-16.041,14.692L339.5,291.272a1.283,1.283,0,0,1-.426-.954v-9.072a1.29,1.29,0,0,1,1.288-1.289h5.217l9.976,8.952,9.957-8.952h5.217a1.29,1.29,0,0,1,1.288,1.289Z" transform="translate(-335.75 -276.636)" fill="#ff3d64"/>
      <path id="Pfad_1571" data-name="Pfad 1571" d="M530.139,484.846l4.227,3.874-.016,8.178h-5.744l-5.815-5.322-2.444,2.238,7,6.41,10.334,0,0-12.949-5.1-4.665Z" transform="translate(-498.092 -457.775)" fill="#10006b"/>
      <path id="Pfad_1572" data-name="Pfad 1572" d="M343.293,484.846l-4.227,3.874.016,8.178h5.744l5.815-5.322,2.444,2.238-7,6.41-10.334,0,0-12.949,5.1-4.665Z" transform="translate(-335.75 -457.775)" fill="#ffc900"/>
    </g>
  </g>
</svg>